<svg xmlns="http://www.w3.org/2000/svg" width="95" height="95" viewBox="0 0 95 95"><defs><style>.a{fill:#fff;}</style></defs><g transform="translate(-70.111 -70.111)"><path class="a" d="M117.611,70.111a47.5,47.5,0,1,0,47.5,47.5A47.554,47.554,0,0,0,117.611,70.111Zm0,89.52c-23.925,0-42.02-18.094-42.02-42.02s18.094-42.019,42.02-42.019,42.019,18.094,42.019,42.019S141.537,159.631,117.611,159.631Z"/><path class="a" d="M494.662,322.178v-2.651H481.4v7.961h10.612v2.651H481.4v2.651h13.264v-7.954H484.05v-2.658Z" transform="translate(-343.896 -208.548)"/><path class="a" d="M157.655,322.178h10.612v2.658H157.655v7.954h13.264V319.527H157.655Zm10.612,7.961h-7.961v-2.652h7.961Z" transform="translate(-73.199 -208.548)"/><path class="a" d="M254.782,332.78h2.651v-5.3h1.555l5.306,5.306,3.751,0-5.305-5.3h5.305v-7.961H254.782Zm2.651-10.612h7.961v2.658h-7.961Z" transform="translate(-154.411 -208.538)"/><rect class="a" width="2.651" height="13.264" transform="translate(132.2 110.979)"/><path class="a" d="M358.541,323.734l-4.213-4.206H351.91v13.264h2.651v-9.283l3.98,3.98,3.98-3.98v9.283h2.651V319.527h-2.425Z" transform="translate(-235.624 -208.548)"/></g></svg>